<svg xmlns="http://www.w3.org/2000/svg" fill="none" viewBox="0 0 48 48">
  <path fill="#000" d="M33.56 15.704c-.12-3.528 2.92-5.184 3.08-5.288-1.688-2.472-4.344-2.808-5.28-2.856-2.256-.232-4.424 1.304-5.56 1.304-1.152 0-2.888-1.264-4.728-1.232-2.424.04-4.68 1.416-5.92 3.592-2.536 4.368-.648 10.816 1.8 14.368 1.192 1.744 2.6 3.688 4.472 3.624 1.832-.064 2.52-1.168 4.728-1.168 2.216 0 2.808 1.168 4.728 1.128 1.936-.032 3.128-1.76 4.28-3.512 1.368-1.944 1.928-3.832 1.96-3.936-.04-.024-3.768-1.448-3.88-5.752zm-4.016-10.16c1.008-1.216 1.688-2.88 1.504-4.544-1.456.056-3.248.968-4.32 2.16-1.016 1.128-1.92 2.888-1.632 4.584 1.56.056 3.152-.8 4.448-2.2z"/>
</svg>
