<?xml version="1.0" encoding="utf-8"?>
<!-- Uploaded to: SVG Repo, www.svgrepo.com, Generator: SVG Repo Mixer Tools -->
<svg fill="#000000" width="800px" height="800px" viewBox="0 0 32 32" version="1.1" xmlns="http://www.w3.org/2000/svg">
<title>zoom</title>
<path d="M19.283 17.4c-0.367 0.374-0.879 0.606-1.444 0.606-1.117 0-2.023-0.906-2.023-2.023s0.906-2.023 2.023-2.023c0.929 0 1.712 0.626 1.949 1.479l0.003 0.014c0.045 0.159 0.071 0.341 0.071 0.53 0 0.552-0.221 1.052-0.579 1.417l0-0zM15.471 13.586c-0.648 0.615-1.052 1.483-1.052 2.446 0 1.861 1.509 3.37 3.37 3.37s3.37-1.509 3.37-3.37c0-1.54-1.033-2.838-2.444-3.241l-0.024-0.006c-0.27-0.078-0.581-0.123-0.902-0.123-0.899 0-1.716 0.352-2.32 0.925l0.002-0.001zM28.296 12.601c-0.802 0.001-1.522 0.352-2.016 0.909l-0.002 0.003c-0.496-0.562-1.219-0.915-2.023-0.915-0.563 0-1.086 0.173-1.519 0.468l0.009-0.006c-0.316-0.278-0.73-0.451-1.184-0.462l-0.002-0v6.742l0.337-0.016c0.544-0.014 0.981-0.451 0.995-0.993l0-0.001 0.016-0.337v-2.361l0.017-0.337c0-0.001 0-0.002 0-0.003 0-0.245 0.061-0.477 0.169-0.679l-0.004 0.008c0.238-0.405 0.671-0.672 1.166-0.672s0.928 0.267 1.162 0.664l0.003 0.006c0.103 0.196 0.164 0.428 0.165 0.675v0l0.017 0.339v2.361l0.016 0.336c0.022 0.54 0.454 0.972 0.991 0.995l0.002 0 0.337 0.016v-3.708l0.015-0.337c0-0.001 0-0.002 0-0.003 0-0.247 0.062-0.48 0.171-0.683l-0.004 0.008c0.238-0.403 0.67-0.669 1.165-0.669 0.496 0 0.929 0.268 1.164 0.666l0.003 0.006c0.102 0.195 0.162 0.427 0.162 0.673 0 0.001 0 0.001 0 0.002v-0l0.019 0.337v2.361l0.016 0.336c0.020 0.541 0.454 0.975 0.993 0.995l0.002 0 0.337 0.016v-4.045c-0.001-1.488-1.208-2.694-2.697-2.694-0.001 0-0.002 0-0.003 0h0zM12.206 17.4c-0.37 0.393-0.894 0.638-1.475 0.638-1.117 0-2.023-0.906-2.023-2.023s0.906-2.023 2.023-2.023c0.924 0 1.703 0.619 1.945 1.465l0.004 0.014c0.047 0.163 0.075 0.351 0.075 0.544 0 0.536-0.209 1.024-0.549 1.386l0.001-0.001zM10.78 12.6h-0.005c-1.86 0.001-3.367 1.509-3.367 3.368s1.508 3.368 3.368 3.368 3.368-1.508 3.368-3.368c0-1.86-1.507-3.367-3.366-3.368h-0zM6.734 18.008l-0.337-0.015h-3.035l4.044-4.045-0.016-0.337c-0.013-0.544-0.451-0.982-0.994-0.995l-0.001-0-0.337-0.016h-5.052l0.018 0.337c0.026 0.538 0.455 0.967 0.99 0.995l0.002 0 0.337 0.016h3.037l-4.049 4.045 0.017 0.336c0.019 0.541 0.453 0.975 0.992 0.995l0.002 0 0.337 0.016h5.056l-0.018-0.337c-0.024-0.539-0.455-0.969-0.991-0.993l-0.002-0z"></path>
</svg>