<?xml version="1.0" encoding="utf-8"?>
<!-- Uploaded to: SVG Repo, www.svgrepo.com, Generator: SVG Repo Mixer Tools -->
<svg fill="#000000" width="800px" height="800px" viewBox="0 0 32 32" version="1.1" xmlns="http://www.w3.org/2000/svg">
<title>aboutdotme</title>
<path d="M14.487 21.741v-7.11c0-1.22-0.544-1.919-1.672-1.919-0.894 0.082-1.662 0.557-2.139 1.249l-0.006 0.010v7.798h-2.937v-7.123c0-1.22-0.519-1.914-1.647-1.914-0.895 0.076-1.666 0.553-2.139 1.247l-0.006 0.010v7.798h-2.935v-11.402h2.937v1.437c0.821-0.961 2.032-1.568 3.385-1.575h0.001c0.088-0.009 0.189-0.014 0.292-0.014 1.292 0 2.391 0.827 2.797 1.981l0.006 0.021c0.792-1.19 2.121-1.969 3.634-1.987l0.003-0c2.124 0 3.362 1.262 3.362 3.703v7.798h-2.94l0.006-0.009zM22.593 16.955c0.29 1.416 1.525 2.466 3.006 2.466 0.055 0 0.111-0.001 0.165-0.004l-0.008 0c0.009 0 0.019 0 0.029 0 1.138 0 2.175-0.434 2.953-1.145l-0.003 0.003 1.468 1.687c-1.177 1.105-2.766 1.784-4.513 1.784-0.057 0-0.113-0.001-0.169-0.002l0.008 0c-0.063 0.003-0.137 0.004-0.212 0.004-3.125 0-5.659-2.533-5.659-5.659 0-0.036 0-0.071 0.001-0.107l-0 0.005c-0.001-0.041-0.002-0.089-0.002-0.137 0-3.113 2.524-5.636 5.636-5.636 0.027 0 0.053 0 0.080 0.001l-0.004-0c0.023-0 0.050-0.001 0.076-0.001 3.066 0 5.551 2.485 5.551 5.551 0 0.071-0.001 0.143-0.004 0.213l0-0.010v0.957h-8.401v0.029zM25.417 12.434c-0.003 0-0.006 0-0.009 0-1.505 0-2.739 1.16-2.857 2.634l-0.001 0.010h5.758c-0.105-1.482-1.333-2.644-2.832-2.644-0.021 0-0.042 0-0.062 0.001l0.003-0z"></path>
</svg>